<svg width="144" height="20" viewBox="0 0 144 20" fill="none" xmlns="http://www.w3.org/2000/svg">
    <path d="M32.8063 14.9045H30.6452V6.12613C30.6452 5.51507 30.7645 5.00089 31.0029 4.58358C31.2464 4.1613 31.5867 3.84335 32.0238 3.62972C32.466 3.41113 32.9901 3.30184 33.5962 3.30184C33.7949 3.30184 33.9862 3.31674 34.17 3.34655C34.3538 3.37139 34.5327 3.40368 34.7066 3.44343L34.6842 5.0605C34.5898 5.03566 34.4904 5.01827 34.3861 5.00834C34.2818 4.9984 34.1601 4.99343 34.021 4.99343C33.7626 4.99343 33.5416 5.03814 33.3578 5.12757C33.1789 5.21202 33.0423 5.33871 32.9479 5.50762C32.8535 5.67653 32.8063 5.8827 32.8063 6.12613V14.9045ZM34.4159 6.84152V8.36172H29.4455V6.84152H34.4159ZM35.1984 10.955V10.7985C35.1984 10.2073 35.2828 9.66333 35.4518 9.16653C35.6207 8.66477 35.8666 8.23007 36.1895 7.86244C36.5124 7.49481 36.9099 7.20915 37.3818 7.00546C37.8538 6.79681 38.3953 6.69248 39.0063 6.69248C39.6174 6.69248 40.1614 6.79681 40.6383 7.00546C41.1152 7.20915 41.5152 7.49481 41.8381 7.86244C42.166 8.23007 42.4144 8.66477 42.5833 9.16653C42.7522 9.66333 42.8366 10.2073 42.8366 10.7985V10.955C42.8366 11.5412 42.7522 12.0852 42.5833 12.587C42.4144 13.0838 42.166 13.5185 41.8381 13.8911C41.5152 14.2587 41.1177 14.5444 40.6458 14.748C40.1738 14.9517 39.6323 15.0536 39.0212 15.0536C38.4102 15.0536 37.8662 14.9517 37.3893 14.748C36.9173 14.5444 36.5174 14.2587 36.1895 13.8911C35.8666 13.5185 35.6207 13.0838 35.4518 12.587C35.2828 12.0852 35.1984 11.5412 35.1984 10.955ZM37.3445 10.7985V10.955C37.3445 11.2928 37.3744 11.6083 37.434 11.9014C37.4936 12.1945 37.588 12.4528 37.7171 12.6764C37.8513 12.895 38.0252 13.0664 38.2388 13.1906C38.4524 13.3148 38.7132 13.3769 39.0212 13.3769C39.3193 13.3769 39.5752 13.3148 39.7888 13.1906C40.0024 13.0664 40.1738 12.895 40.303 12.6764C40.4321 12.4528 40.5265 12.1945 40.5862 11.9014C40.6507 11.6083 40.683 11.2928 40.683 10.955V10.7985C40.683 10.4706 40.6507 10.1626 40.5862 9.87447C40.5265 9.58136 40.4297 9.32302 40.2955 9.09946C40.1664 8.87094 39.995 8.69209 39.7813 8.56292C39.5677 8.43376 39.3094 8.36917 39.0063 8.36917C38.7033 8.36917 38.445 8.43376 38.2313 8.56292C38.0227 8.69209 37.8513 8.87094 37.7171 9.09946C37.588 9.32302 37.4936 9.58136 37.434 9.87447C37.3744 10.1626 37.3445 10.4706 37.3445 10.7985ZM43.8129 10.955V10.7985C43.8129 10.2073 43.8973 9.66333 44.0662 9.16653C44.2351 8.66477 44.481 8.23007 44.804 7.86244C45.1269 7.49481 45.5243 7.20915 45.9963 7.00546C46.4682 6.79681 47.0097 6.69248 47.6208 6.69248C48.2319 6.69248 48.7759 6.79681 49.2528 7.00546C49.7297 7.20915 50.1296 7.49481 50.4525 7.86244C50.7804 8.23007 51.0288 8.66477 51.1977 9.16653C51.3667 9.66333 51.4511 10.2073 51.4511 10.7985V10.955C51.4511 11.5412 51.3667 12.0852 51.1977 12.587C51.0288 13.0838 50.7804 13.5185 50.4525 13.8911C50.1296 14.2587 49.7322 14.5444 49.2602 14.748C48.7883 14.9517 48.2468 15.0536 47.6357 15.0536C47.0246 15.0536 46.4807 14.9517 46.0037 14.748C45.5318 14.5444 45.1318 14.2587 44.804 13.8911C44.481 13.5185 44.2351 13.0838 44.0662 12.587C43.8973 12.0852 43.8129 11.5412 43.8129 10.955ZM45.959 10.7985V10.955C45.959 11.2928 45.9888 11.6083 46.0484 11.9014C46.1081 12.1945 46.2024 12.4528 46.3316 12.6764C46.4657 12.895 46.6396 13.0664 46.8533 13.1906C47.0669 13.3148 47.3277 13.3769 47.6357 13.3769C47.9338 13.3769 48.1896 13.3148 48.4033 13.1906C48.6169 13.0664 48.7883 12.895 48.9174 12.6764C49.0466 12.4528 49.141 12.1945 49.2006 11.9014C49.2652 11.6083 49.2975 11.2928 49.2975 10.955V10.7985C49.2975 10.4706 49.2652 10.1626 49.2006 9.87447C49.141 9.58136 49.0441 9.32302 48.91 9.09946C48.7808 8.87094 48.6094 8.69209 48.3958 8.56292C48.1822 8.43376 47.9238 8.36917 47.6208 8.36917C47.3178 8.36917 47.0594 8.43376 46.8458 8.56292C46.6371 8.69209 46.4657 8.87094 46.3316 9.09946C46.2024 9.32302 46.1081 9.58136 46.0484 9.87447C45.9888 10.1626 45.959 10.4706 45.959 10.7985ZM57.5319 13.1459V3.45833H59.693V14.9045H57.748L57.5319 13.1459ZM52.4348 10.9699V10.8134C52.4348 10.1974 52.5043 9.63849 52.6434 9.13672C52.7825 8.62999 52.9862 8.19529 53.2545 7.83263C53.5228 7.46997 53.8531 7.18928 54.2456 6.99056C54.6381 6.79184 55.0852 6.69248 55.587 6.69248C56.0589 6.69248 56.4712 6.79184 56.824 6.99056C57.1817 7.18928 57.4847 7.47245 57.7331 7.84008C57.9865 8.20274 58.1902 8.63247 58.3442 9.12927C58.4982 9.6211 58.61 10.1601 58.6795 10.7463V11.0891C58.61 11.6505 58.4982 12.1722 58.3442 12.654C58.1902 13.1359 57.9865 13.5582 57.7331 13.9209C57.4847 14.2786 57.1817 14.5568 56.824 14.7555C56.4663 14.9542 56.049 15.0536 55.572 15.0536C55.0703 15.0536 54.6232 14.9517 54.2307 14.748C53.8432 14.5444 53.5153 14.2587 53.247 13.8911C52.9837 13.5234 52.7825 13.0912 52.6434 12.5944C52.5043 12.0976 52.4348 11.5561 52.4348 10.9699ZM54.5809 10.8134V10.9699C54.5809 11.3028 54.6058 11.6133 54.6555 11.9014C54.7101 12.1895 54.797 12.4454 54.9163 12.669C55.0405 12.8875 55.1994 13.0589 55.3932 13.1831C55.5919 13.3024 55.8329 13.362 56.116 13.362C56.4837 13.362 56.7867 13.28 57.0252 13.1161C57.2636 12.9472 57.445 12.7161 57.5692 12.423C57.6983 12.1299 57.7729 11.7921 57.7927 11.4096V10.4334C57.7778 10.1204 57.7331 9.83969 57.6586 9.59129C57.589 9.33793 57.4847 9.12182 57.3456 8.94297C57.2115 8.76413 57.0426 8.62502 56.8389 8.52566C56.6402 8.4263 56.4042 8.37662 56.1309 8.37662C55.8527 8.37662 55.6143 8.44121 55.4156 8.57037C55.2168 8.69457 55.0554 8.86597 54.9312 9.08456C54.8119 9.30315 54.7225 9.56149 54.6629 9.85956C54.6083 10.1527 54.5809 10.4706 54.5809 10.8134ZM68.8812 15.0536C68.2553 15.0536 67.6939 14.9542 67.1971 14.7555C66.7003 14.5518 66.278 14.2711 65.9303 13.9134C65.5875 13.5557 65.3242 13.1409 65.1404 12.669C64.9565 12.192 64.8646 11.6853 64.8646 11.1488V10.8507C64.8646 10.2396 64.9516 9.68072 65.1255 9.17398C65.2993 8.66725 65.5477 8.22758 65.8707 7.85499C66.1985 7.48239 66.596 7.19673 67.063 6.99801C67.53 6.79432 68.0566 6.69248 68.6428 6.69248C69.2141 6.69248 69.7208 6.78687 70.163 6.97565C70.6051 7.16444 70.9752 7.43271 71.2733 7.78047C71.5764 8.12822 71.8049 8.54553 71.9589 9.0324C72.1129 9.51429 72.1899 10.0508 72.1899 10.642V11.5363H65.7812V10.1055H70.081V9.94154C70.081 9.64346 70.0264 9.37767 69.9171 9.14418C69.8127 8.90571 69.6538 8.71693 69.4401 8.57783C69.2265 8.43872 68.9533 8.36917 68.6204 8.36917C68.3373 8.36917 68.0938 8.43127 67.8901 8.55547C67.6865 8.67967 67.52 8.85355 67.3909 9.07711C67.2667 9.30067 67.1723 9.56397 67.1077 9.86702C67.0481 10.1651 67.0183 10.493 67.0183 10.8507V11.1488C67.0183 11.4717 67.063 11.7697 67.1524 12.043C67.2468 12.3162 67.3784 12.5522 67.5473 12.7509C67.7212 12.9496 67.9299 13.1037 68.1733 13.2129C68.4217 13.3222 68.7024 13.3769 69.0154 13.3769C69.4029 13.3769 69.7631 13.3024 70.0959 13.1533C70.4337 12.9993 70.7244 12.7683 70.9678 12.4603L72.0111 13.593C71.8422 13.8364 71.6111 14.0699 71.318 14.2935C71.0299 14.517 70.6821 14.7009 70.2748 14.8449C69.8674 14.984 69.4029 15.0536 68.8812 15.0536ZM75.1409 6.84152L76.4748 9.29321L77.846 6.84152H80.1337L77.8534 10.7836L80.238 14.9045H77.9428L76.4897 12.3113L75.0366 14.9045H72.7414L75.126 10.7836L72.8457 6.84152H75.1409ZM83.3231 8.39153V18.0046H81.177V6.84152H83.1667L83.3231 8.39153ZM88.4277 10.7836V10.9401C88.4277 11.5263 88.3582 12.0703 88.2191 12.5721C88.085 13.0738 87.8862 13.511 87.6229 13.8836C87.3596 14.2513 87.0317 14.5394 86.6393 14.748C86.2518 14.9517 85.8047 15.0536 85.2979 15.0536C84.8061 15.0536 84.3788 14.9542 84.0162 14.7555C83.6535 14.5568 83.348 14.2786 83.0996 13.9209C82.8562 13.5582 82.6599 13.1384 82.5109 12.6615C82.3618 12.1846 82.2476 11.6729 82.1681 11.1264V10.7165C82.2476 10.1303 82.3618 9.59378 82.5109 9.10692C82.6599 8.61509 82.8562 8.19032 83.0996 7.83263C83.348 7.46997 83.651 7.18928 84.0087 6.99056C84.3714 6.79184 84.7962 6.69248 85.283 6.69248C85.7947 6.69248 86.2443 6.78936 86.6318 6.98311C87.0243 7.17686 87.3522 7.45506 87.6155 7.81773C87.8837 8.18039 88.085 8.6126 88.2191 9.11437C88.3582 9.61613 88.4277 10.1725 88.4277 10.7836ZM86.2741 10.9401V10.7836C86.2741 10.4408 86.2443 10.1254 86.1847 9.83721C86.1301 9.5441 86.0406 9.28825 85.9164 9.06966C85.7972 8.85106 85.6382 8.68215 85.4395 8.56292C85.2458 8.43872 85.0098 8.37662 84.7316 8.37662C84.4385 8.37662 84.1876 8.42382 83.9789 8.51821C83.7752 8.6126 83.6088 8.74922 83.4796 8.92807C83.3505 9.10692 83.2536 9.32054 83.189 9.56894C83.1244 9.81734 83.0847 10.098 83.0698 10.411V11.4468C83.0946 11.8145 83.1642 12.1448 83.2784 12.4379C83.3927 12.7261 83.5691 12.9546 83.8075 13.1235C84.046 13.2924 84.359 13.3769 84.7465 13.3769C85.0296 13.3769 85.2681 13.3148 85.4619 13.1906C85.6556 13.0614 85.8121 12.8851 85.9313 12.6615C86.0555 12.4379 86.1425 12.1796 86.1922 11.8865C86.2468 11.5934 86.2741 11.2779 86.2741 10.9401ZM92.027 3.45833V14.9045H89.8734V3.45833H92.027ZM93.4578 10.955V10.7985C93.4578 10.2073 93.5423 9.66333 93.7112 9.16653C93.8801 8.66477 94.126 8.23007 94.4489 7.86244C94.7718 7.49481 95.1693 7.20915 95.6412 7.00546C96.1132 6.79681 96.6547 6.69248 97.2658 6.69248C97.8768 6.69248 98.4208 6.79681 98.8977 7.00546C99.3747 7.20915 99.7746 7.49481 100.098 7.86244C100.425 8.23007 100.674 8.66477 100.843 9.16653C101.012 9.66333 101.096 10.2073 101.096 10.7985V10.955C101.096 11.5412 101.012 12.0852 100.843 12.587C100.674 13.0838 100.425 13.5185 100.098 13.8911C99.7746 14.2587 99.3772 14.5444 98.9052 14.748C98.4332 14.9517 97.8917 15.0536 97.2807 15.0536C96.6696 15.0536 96.1256 14.9517 95.6487 14.748C95.1767 14.5444 94.7768 14.2587 94.4489 13.8911C94.126 13.5185 93.8801 13.0838 93.7112 12.587C93.5423 12.0852 93.4578 11.5412 93.4578 10.955ZM95.604 10.7985V10.955C95.604 11.2928 95.6338 11.6083 95.6934 11.9014C95.753 12.1945 95.8474 12.4528 95.9766 12.6764C96.1107 12.895 96.2846 13.0664 96.4982 13.1906C96.7118 13.3148 96.9727 13.3769 97.2807 13.3769C97.5787 13.3769 97.8346 13.3148 98.0482 13.1906C98.2618 13.0664 98.4332 12.895 98.5624 12.6764C98.6916 12.4528 98.786 12.1945 98.8456 11.9014C98.9102 11.6083 98.9425 11.2928 98.9425 10.955V10.7985C98.9425 10.4706 98.9102 10.1626 98.8456 9.87447C98.786 9.58136 98.6891 9.32302 98.555 9.09946C98.4258 8.87094 98.2544 8.69209 98.0408 8.56292C97.8271 8.43376 97.5688 8.36917 97.2658 8.36917C96.9627 8.36917 96.7044 8.43376 96.4908 8.56292C96.2821 8.69209 96.1107 8.87094 95.9766 9.09946C95.8474 9.32302 95.753 9.58136 95.6934 9.87447C95.6338 10.1626 95.604 10.4706 95.604 10.7985ZM104.561 8.60018V14.9045H102.415V6.84152H104.435L104.561 8.60018ZM106.991 6.78936L106.953 8.77903C106.849 8.76413 106.722 8.75171 106.573 8.74177C106.429 8.72687 106.298 8.71941 106.178 8.71941C105.875 8.71941 105.612 8.75916 105.388 8.83864C105.17 8.91316 104.986 9.02494 104.837 9.17398C104.693 9.32302 104.584 9.50435 104.509 9.71798C104.44 9.9316 104.4 10.175 104.39 10.4483L103.958 10.3141C103.958 9.7925 104.01 9.31309 104.114 8.8759C104.218 8.43376 104.37 8.04874 104.569 7.72085C104.772 7.39296 105.021 7.1396 105.314 6.96075C105.607 6.7819 105.942 6.69248 106.32 6.69248C106.439 6.69248 106.561 6.70242 106.685 6.72229C106.809 6.73719 106.911 6.75955 106.991 6.78936ZM111.566 15.0536C110.94 15.0536 110.379 14.9542 109.882 14.7555C109.385 14.5518 108.963 14.2711 108.615 13.9134C108.272 13.5557 108.009 13.1409 107.825 12.669C107.641 12.192 107.549 11.6853 107.549 11.1488V10.8507C107.549 10.2396 107.636 9.68072 107.81 9.17398C107.984 8.66725 108.233 8.22758 108.555 7.85499C108.883 7.48239 109.281 7.19673 109.748 6.99801C110.215 6.79432 110.741 6.69248 111.328 6.69248C111.899 6.69248 112.406 6.78687 112.848 6.97565C113.29 7.16444 113.66 7.43271 113.958 7.78047C114.261 8.12822 114.49 8.54553 114.644 9.0324C114.798 9.51429 114.875 10.0508 114.875 10.642V11.5363H108.466V10.1055H112.766V9.94154C112.766 9.64346 112.711 9.37767 112.602 9.14418C112.498 8.90571 112.339 8.71693 112.125 8.57783C111.911 8.43872 111.638 8.36917 111.305 8.36917C111.022 8.36917 110.779 8.43127 110.575 8.55547C110.371 8.67967 110.205 8.85355 110.076 9.07711C109.951 9.30067 109.857 9.56397 109.793 9.86702C109.733 10.1651 109.703 10.493 109.703 10.8507V11.1488C109.703 11.4717 109.748 11.7697 109.837 12.043C109.932 12.3162 110.063 12.5522 110.232 12.7509C110.406 12.9496 110.615 13.1037 110.858 13.2129C111.107 13.3222 111.387 13.3769 111.7 13.3769C112.088 13.3769 112.448 13.3024 112.781 13.1533C113.119 12.9993 113.409 12.7683 113.653 12.4603L114.696 13.593C114.527 13.8364 114.296 14.0699 114.003 14.2935C113.715 14.517 113.367 14.7009 112.96 14.8449C112.552 14.984 112.088 15.0536 111.566 15.0536ZM118.243 8.60018V14.9045H116.097V6.84152H118.116L118.243 8.60018ZM120.672 6.78936L120.635 8.77903C120.531 8.76413 120.404 8.75171 120.255 8.74177C120.111 8.72687 119.979 8.71941 119.86 8.71941C119.557 8.71941 119.294 8.75916 119.07 8.83864C118.852 8.91316 118.668 9.02494 118.519 9.17398C118.375 9.32302 118.265 9.50435 118.191 9.71798C118.121 9.9316 118.082 10.175 118.072 10.4483L117.639 10.3141C117.639 9.7925 117.692 9.31309 117.796 8.8759C117.9 8.43376 118.052 8.04874 118.25 7.72085C118.454 7.39296 118.703 7.1396 118.996 6.96075C119.289 6.7819 119.624 6.69248 120.002 6.69248C120.121 6.69248 120.243 6.70242 120.367 6.72229C120.491 6.73719 120.593 6.75955 120.672 6.78936Z" fill="#4D585E"/>
    <path d="M11.7637 1.24036L21.29 5.74036V14.7404L11.7637 19.2404L2.23739 14.7404V5.74036L11.7637 1.24036Z" fill="#4D585E"/>
    </svg>
    